<svg xmlns="http://www.w3.org/2000/svg" xmlns:xlink="http://www.w3.org/1999/xlink" viewBox="0 0 2000 180" width="2000" height="180" role="img" aria-label="blood pool">
  <defs>
    <linearGradient id="pool" x1="0" y1="0" x2="0" y2="1">
      <stop offset="0" stop-color="#a01616"/><stop offset="0.5" stop-color="#6c0d0d"/><stop offset="1" stop-color="#360606"/>
    </linearGradient>
    <linearGradient id="sheen" x1="0" y1="0" x2="0" y2="1">
      <stop offset="0" stop-color="#ef7a7a" stop-opacity="0.5"/><stop offset="1" stop-color="#ef7a7a" stop-opacity="0"/>
    </linearGradient>
    <pattern id="scan" width="10" height="3" patternUnits="userSpaceOnUse">
      <rect x="0" y="0" width="10" height="1" fill="#000000" opacity="0.11"/>
    </pattern>
  </defs>
  <path fill="url(#pool)" d="M0.0,118.0 L50.0,121.3 L100.0,124.0 L150.0,125.6 L200.0,126.0 L250.0,124.9 L300.0,122.7 L350.0,119.6 L400.0,116.3 L450.0,113.2 L500.0,111.0 L550.0,110.0 L600.0,110.4 L650.0,112.1 L700.0,114.9 L750.0,118.1 L800.0,121.4 L850.0,124.0 L900.0,125.7 L950.0,125.9 L1000.0,124.8 L1050.0,122.5 L1100.0,119.5 L1150.0,116.1 L1200.0,113.1 L1250.0,111.0 L1300.0,110.0 L1350.0,110.5 L1400.0,112.2 L1450.0,115.0 L1500.0,118.3 L1550.0,121.5 L1600.0,124.1 L1650.0,125.7 L1700.0,125.9 L1750.0,124.8 L1800.0,122.4 L1850.0,119.3 L1900.0,116.0 L1950.0,113.0 L2000.0,110.9 L2000,180 L0,180 Z"><animate attributeName="d" values="M0.0,118.0 L50.0,121.3 L100.0,124.0 L150.0,125.6 L200.0,126.0 L250.0,124.9 L300.0,122.7 L350.0,119.6 L400.0,116.3 L450.0,113.2 L500.0,111.0 L550.0,110.0 L600.0,110.4 L650.0,112.1 L700.0,114.9 L750.0,118.1 L800.0,121.4 L850.0,124.0 L900.0,125.7 L950.0,125.9 L1000.0,124.8 L1050.0,122.5 L1100.0,119.5 L1150.0,116.1 L1200.0,113.1 L1250.0,111.0 L1300.0,110.0 L1350.0,110.5 L1400.0,112.2 L1450.0,115.0 L1500.0,118.3 L1550.0,121.5 L1600.0,124.1 L1650.0,125.7 L1700.0,125.9 L1750.0,124.8 L1800.0,122.4 L1850.0,119.3 L1900.0,116.0 L1950.0,113.0 L2000.0,110.9 L2000,180 L0,180 Z;M0.0,118.0 L50.0,114.7 L100.0,112.0 L150.0,110.4 L200.0,110.0 L250.0,111.1 L300.0,113.3 L350.0,116.4 L400.0,119.7 L450.0,122.8 L500.0,125.0 L550.0,126.0 L600.0,125.6 L650.0,123.9 L700.0,121.1 L750.0,117.9 L800.0,114.6 L850.0,112.0 L900.0,110.3 L950.0,110.1 L1000.0,111.2 L1050.0,113.5 L1100.0,116.5 L1150.0,119.9 L1200.0,122.9 L1250.0,125.0 L1300.0,126.0 L1350.0,125.5 L1400.0,123.8 L1450.0,121.0 L1500.0,117.7 L1550.0,114.5 L1600.0,111.9 L1650.0,110.3 L1700.0,110.1 L1750.0,111.2 L1800.0,113.6 L1850.0,116.7 L1900.0,120.0 L1950.0,123.0 L2000.0,125.1 L2000,180 L0,180 Z;M0.0,118.0 L50.0,121.3 L100.0,124.0 L150.0,125.6 L200.0,126.0 L250.0,124.9 L300.0,122.7 L350.0,119.6 L400.0,116.3 L450.0,113.2 L500.0,111.0 L550.0,110.0 L600.0,110.4 L650.0,112.1 L700.0,114.9 L750.0,118.1 L800.0,121.4 L850.0,124.0 L900.0,125.7 L950.0,125.9 L1000.0,124.8 L1050.0,122.5 L1100.0,119.5 L1150.0,116.1 L1200.0,113.1 L1250.0,111.0 L1300.0,110.0 L1350.0,110.5 L1400.0,112.2 L1450.0,115.0 L1500.0,118.3 L1550.0,121.5 L1600.0,124.1 L1650.0,125.7 L1700.0,125.9 L1750.0,124.8 L1800.0,122.4 L1850.0,119.3 L1900.0,116.0 L1950.0,113.0 L2000.0,110.9 L2000,180 L0,180 Z" dur="6.5s" repeatCount="indefinite"/></path>
  <path fill="url(#sheen)" d="M0.0,118.0 L50.0,121.3 L100.0,124.0 L150.0,125.6 L200.0,126.0 L250.0,124.9 L300.0,122.7 L350.0,119.6 L400.0,116.3 L450.0,113.2 L500.0,111.0 L550.0,110.0 L600.0,110.4 L650.0,112.1 L700.0,114.9 L750.0,118.1 L800.0,121.4 L850.0,124.0 L900.0,125.7 L950.0,125.9 L1000.0,124.8 L1050.0,122.5 L1100.0,119.5 L1150.0,116.1 L1200.0,113.1 L1250.0,111.0 L1300.0,110.0 L1350.0,110.5 L1400.0,112.2 L1450.0,115.0 L1500.0,118.3 L1550.0,121.5 L1600.0,124.1 L1650.0,125.7 L1700.0,125.9 L1750.0,124.8 L1800.0,122.4 L1850.0,119.3 L1900.0,116.0 L1950.0,113.0 L2000.0,110.9 L2000,152 L0,152 Z"><animate attributeName="d" values="M0.0,118.0 L50.0,121.3 L100.0,124.0 L150.0,125.6 L200.0,126.0 L250.0,124.9 L300.0,122.7 L350.0,119.6 L400.0,116.3 L450.0,113.2 L500.0,111.0 L550.0,110.0 L600.0,110.4 L650.0,112.1 L700.0,114.9 L750.0,118.1 L800.0,121.4 L850.0,124.0 L900.0,125.7 L950.0,125.9 L1000.0,124.8 L1050.0,122.5 L1100.0,119.5 L1150.0,116.1 L1200.0,113.1 L1250.0,111.0 L1300.0,110.0 L1350.0,110.5 L1400.0,112.2 L1450.0,115.0 L1500.0,118.3 L1550.0,121.5 L1600.0,124.1 L1650.0,125.7 L1700.0,125.9 L1750.0,124.8 L1800.0,122.4 L1850.0,119.3 L1900.0,116.0 L1950.0,113.0 L2000.0,110.9 L2000,152 L0,152 Z;M0.0,118.0 L50.0,114.7 L100.0,112.0 L150.0,110.4 L200.0,110.0 L250.0,111.1 L300.0,113.3 L350.0,116.4 L400.0,119.7 L450.0,122.8 L500.0,125.0 L550.0,126.0 L600.0,125.6 L650.0,123.9 L700.0,121.1 L750.0,117.9 L800.0,114.6 L850.0,112.0 L900.0,110.3 L950.0,110.1 L1000.0,111.2 L1050.0,113.5 L1100.0,116.5 L1150.0,119.9 L1200.0,122.9 L1250.0,125.0 L1300.0,126.0 L1350.0,125.5 L1400.0,123.8 L1450.0,121.0 L1500.0,117.7 L1550.0,114.5 L1600.0,111.9 L1650.0,110.3 L1700.0,110.1 L1750.0,111.2 L1800.0,113.6 L1850.0,116.7 L1900.0,120.0 L1950.0,123.0 L2000.0,125.1 L2000,152 L0,152 Z;M0.0,118.0 L50.0,121.3 L100.0,124.0 L150.0,125.6 L200.0,126.0 L250.0,124.9 L300.0,122.7 L350.0,119.6 L400.0,116.3 L450.0,113.2 L500.0,111.0 L550.0,110.0 L600.0,110.4 L650.0,112.1 L700.0,114.9 L750.0,118.1 L800.0,121.4 L850.0,124.0 L900.0,125.7 L950.0,125.9 L1000.0,124.8 L1050.0,122.5 L1100.0,119.5 L1150.0,116.1 L1200.0,113.1 L1250.0,111.0 L1300.0,110.0 L1350.0,110.5 L1400.0,112.2 L1450.0,115.0 L1500.0,118.3 L1550.0,121.5 L1600.0,124.1 L1650.0,125.7 L1700.0,125.9 L1750.0,124.8 L1800.0,122.4 L1850.0,119.3 L1900.0,116.0 L1950.0,113.0 L2000.0,110.9 L2000,152 L0,152 Z" dur="6.5s" repeatCount="indefinite"/></path>
  <path fill="none" stroke="#e8706e" stroke-width="2.2" opacity="0.5" d="M0.0,123.0 L50.0,126.3 L100.0,129.0 L150.0,130.6 L200.0,131.0 L250.0,129.9 L300.0,127.7 L350.0,124.6 L400.0,121.3 L450.0,118.2 L500.0,116.0 L550.0,115.0 L600.0,115.4 L650.0,117.1 L700.0,119.9 L750.0,123.1 L800.0,126.4 L850.0,129.0 L900.0,130.7 L950.0,130.9 L1000.0,129.8 L1050.0,127.5 L1100.0,124.5 L1150.0,121.1 L1200.0,118.1 L1250.0,116.0 L1300.0,115.0 L1350.0,115.5 L1400.0,117.2 L1450.0,120.0 L1500.0,123.3 L1550.0,126.5 L1600.0,129.1 L1650.0,130.7 L1700.0,130.9 L1750.0,129.8 L1800.0,127.4 L1850.0,124.3 L1900.0,121.0 L1950.0,118.0 L2000.0,115.9"><animate attributeName="d" values="M0.0,123.0 L50.0,126.3 L100.0,129.0 L150.0,130.6 L200.0,131.0 L250.0,129.9 L300.0,127.7 L350.0,124.6 L400.0,121.3 L450.0,118.2 L500.0,116.0 L550.0,115.0 L600.0,115.4 L650.0,117.1 L700.0,119.9 L750.0,123.1 L800.0,126.4 L850.0,129.0 L900.0,130.7 L950.0,130.9 L1000.0,129.8 L1050.0,127.5 L1100.0,124.5 L1150.0,121.1 L1200.0,118.1 L1250.0,116.0 L1300.0,115.0 L1350.0,115.5 L1400.0,117.2 L1450.0,120.0 L1500.0,123.3 L1550.0,126.5 L1600.0,129.1 L1650.0,130.7 L1700.0,130.9 L1750.0,129.8 L1800.0,127.4 L1850.0,124.3 L1900.0,121.0 L1950.0,118.0 L2000.0,115.9;M0.0,123.0 L50.0,119.7 L100.0,117.0 L150.0,115.4 L200.0,115.0 L250.0,116.1 L300.0,118.3 L350.0,121.4 L400.0,124.7 L450.0,127.8 L500.0,130.0 L550.0,131.0 L600.0,130.6 L650.0,128.9 L700.0,126.1 L750.0,122.9 L800.0,119.6 L850.0,117.0 L900.0,115.3 L950.0,115.1 L1000.0,116.2 L1050.0,118.5 L1100.0,121.5 L1150.0,124.9 L1200.0,127.9 L1250.0,130.0 L1300.0,131.0 L1350.0,130.5 L1400.0,128.8 L1450.0,126.0 L1500.0,122.7 L1550.0,119.5 L1600.0,116.9 L1650.0,115.3 L1700.0,115.1 L1750.0,116.2 L1800.0,118.6 L1850.0,121.7 L1900.0,125.0 L1950.0,128.0 L2000.0,130.1;M0.0,123.0 L50.0,126.3 L100.0,129.0 L150.0,130.6 L200.0,131.0 L250.0,129.9 L300.0,127.7 L350.0,124.6 L400.0,121.3 L450.0,118.2 L500.0,116.0 L550.0,115.0 L600.0,115.4 L650.0,117.1 L700.0,119.9 L750.0,123.1 L800.0,126.4 L850.0,129.0 L900.0,130.7 L950.0,130.9 L1000.0,129.8 L1050.0,127.5 L1100.0,124.5 L1150.0,121.1 L1200.0,118.1 L1250.0,116.0 L1300.0,115.0 L1350.0,115.5 L1400.0,117.2 L1450.0,120.0 L1500.0,123.3 L1550.0,126.5 L1600.0,129.1 L1650.0,130.7 L1700.0,130.9 L1750.0,129.8 L1800.0,127.4 L1850.0,124.3 L1900.0,121.0 L1950.0,118.0 L2000.0,115.9" dur="6.5s" repeatCount="indefinite"/></path>
  <path fill="none" stroke="#2a0303" stroke-width="2.5" d="M0.0,118.0 L50.0,121.3 L100.0,124.0 L150.0,125.6 L200.0,126.0 L250.0,124.9 L300.0,122.7 L350.0,119.6 L400.0,116.3 L450.0,113.2 L500.0,111.0 L550.0,110.0 L600.0,110.4 L650.0,112.1 L700.0,114.9 L750.0,118.1 L800.0,121.4 L850.0,124.0 L900.0,125.7 L950.0,125.9 L1000.0,124.8 L1050.0,122.5 L1100.0,119.5 L1150.0,116.1 L1200.0,113.1 L1250.0,111.0 L1300.0,110.0 L1350.0,110.5 L1400.0,112.2 L1450.0,115.0 L1500.0,118.3 L1550.0,121.5 L1600.0,124.1 L1650.0,125.7 L1700.0,125.9 L1750.0,124.8 L1800.0,122.4 L1850.0,119.3 L1900.0,116.0 L1950.0,113.0 L2000.0,110.9"><animate attributeName="d" values="M0.0,118.0 L50.0,121.3 L100.0,124.0 L150.0,125.6 L200.0,126.0 L250.0,124.9 L300.0,122.7 L350.0,119.6 L400.0,116.3 L450.0,113.2 L500.0,111.0 L550.0,110.0 L600.0,110.4 L650.0,112.1 L700.0,114.9 L750.0,118.1 L800.0,121.4 L850.0,124.0 L900.0,125.7 L950.0,125.9 L1000.0,124.8 L1050.0,122.5 L1100.0,119.5 L1150.0,116.1 L1200.0,113.1 L1250.0,111.0 L1300.0,110.0 L1350.0,110.5 L1400.0,112.2 L1450.0,115.0 L1500.0,118.3 L1550.0,121.5 L1600.0,124.1 L1650.0,125.7 L1700.0,125.9 L1750.0,124.8 L1800.0,122.4 L1850.0,119.3 L1900.0,116.0 L1950.0,113.0 L2000.0,110.9;M0.0,118.0 L50.0,114.7 L100.0,112.0 L150.0,110.4 L200.0,110.0 L250.0,111.1 L300.0,113.3 L350.0,116.4 L400.0,119.7 L450.0,122.8 L500.0,125.0 L550.0,126.0 L600.0,125.6 L650.0,123.9 L700.0,121.1 L750.0,117.9 L800.0,114.6 L850.0,112.0 L900.0,110.3 L950.0,110.1 L1000.0,111.2 L1050.0,113.5 L1100.0,116.5 L1150.0,119.9 L1200.0,122.9 L1250.0,125.0 L1300.0,126.0 L1350.0,125.5 L1400.0,123.8 L1450.0,121.0 L1500.0,117.7 L1550.0,114.5 L1600.0,111.9 L1650.0,110.3 L1700.0,110.1 L1750.0,111.2 L1800.0,113.6 L1850.0,116.7 L1900.0,120.0 L1950.0,123.0 L2000.0,125.1;M0.0,118.0 L50.0,121.3 L100.0,124.0 L150.0,125.6 L200.0,126.0 L250.0,124.9 L300.0,122.7 L350.0,119.6 L400.0,116.3 L450.0,113.2 L500.0,111.0 L550.0,110.0 L600.0,110.4 L650.0,112.1 L700.0,114.9 L750.0,118.1 L800.0,121.4 L850.0,124.0 L900.0,125.7 L950.0,125.9 L1000.0,124.8 L1050.0,122.5 L1100.0,119.5 L1150.0,116.1 L1200.0,113.1 L1250.0,111.0 L1300.0,110.0 L1350.0,110.5 L1400.0,112.2 L1450.0,115.0 L1500.0,118.3 L1550.0,121.5 L1600.0,124.1 L1650.0,125.7 L1700.0,125.9 L1750.0,124.8 L1800.0,122.4 L1850.0,119.3 L1900.0,116.0 L1950.0,113.0 L2000.0,110.9" dur="6.5s" repeatCount="indefinite"/></path>
  <ellipse cx="620" cy="131" rx="120" ry="6" fill="#ffffff" opacity="0.06"><animate attributeName="cx" values="520;1200;520" dur="9s" repeatCount="indefinite"/></ellipse>
  <ellipse cx="1500" cy="135" rx="90" ry="5" fill="#ffffff" opacity="0.05"><animate attributeName="cx" values="1500;900;1500" dur="11s" repeatCount="indefinite"/></ellipse>
  <g>
    <ellipse cx="232" cy="54" rx="9" ry="13" fill="#9c1414" stroke="#5c0808" stroke-width="1.5">
      <animate attributeName="cy" values="54;54;118" keyTimes="0;0.05;0.32" calcMode="spline" keySplines="0 0 1 1;0.35 0 0.9 1" dur="4.6s" begin="0.0s" repeatCount="indefinite"/>
      <animate attributeName="ry" values="13;13;26" keyTimes="0;0.05;0.32" dur="4.6s" begin="0.0s" repeatCount="indefinite"/>
      <animate attributeName="opacity" values="0;1;1;0;0" keyTimes="0;0.06;0.30;0.33;1" dur="4.6s" begin="0.0s" repeatCount="indefinite"/>
    </ellipse>
    <ellipse cx="232" cy="118" rx="26" ry="14" fill="#8c1010">
      <animate attributeName="ry" values="0;0;15;0;0" keyTimes="0;0.32;0.38;0.54;1" dur="4.6s" begin="0.0s" repeatCount="indefinite"/>
      <animate attributeName="opacity" values="0;0;0.85;0;0" keyTimes="0;0.32;0.38;0.54;1" dur="4.6s" begin="0.0s" repeatCount="indefinite"/>
    </ellipse>
    <ellipse cx="232" cy="121" rx="8" ry="3" fill="none" stroke="#c94a4a" stroke-width="3.5">
      <animate attributeName="rx" values="8;8;150" keyTimes="0;0.34;0.92" dur="4.6s" begin="0.0s" repeatCount="indefinite"/>
      <animate attributeName="ry" values="3;3;20" keyTimes="0;0.34;0.92" dur="4.6s" begin="0.0s" repeatCount="indefinite"/>
      <animate attributeName="opacity" values="0;0;0.85;0" keyTimes="0;0.34;0.38;0.92" dur="4.6s" begin="0.0s" repeatCount="indefinite"/>
    </ellipse>
    <ellipse cx="232" cy="121" rx="8" ry="3" fill="none" stroke="#b23a3a" stroke-width="2.6">
      <animate attributeName="rx" values="8;8;95" keyTimes="0;0.42;0.96" dur="4.6s" begin="0.0s" repeatCount="indefinite"/>
      <animate attributeName="ry" values="3;3;13" keyTimes="0;0.42;0.96" dur="4.6s" begin="0.0s" repeatCount="indefinite"/>
      <animate attributeName="opacity" values="0;0;0.7;0" keyTimes="0;0.42;0.46;0.96" dur="4.6s" begin="0.0s" repeatCount="indefinite"/>
    </ellipse>
  </g>
  <g>
    <ellipse cx="1204" cy="54" rx="9" ry="13" fill="#9c1414" stroke="#5c0808" stroke-width="1.5">
      <animate attributeName="cy" values="54;54;118" keyTimes="0;0.05;0.32" calcMode="spline" keySplines="0 0 1 1;0.35 0 0.9 1" dur="4.6s" begin="1.5s" repeatCount="indefinite"/>
      <animate attributeName="ry" values="13;13;26" keyTimes="0;0.05;0.32" dur="4.6s" begin="1.5s" repeatCount="indefinite"/>
      <animate attributeName="opacity" values="0;1;1;0;0" keyTimes="0;0.06;0.30;0.33;1" dur="4.6s" begin="1.5s" repeatCount="indefinite"/>
    </ellipse>
    <ellipse cx="1204" cy="118" rx="26" ry="14" fill="#8c1010">
      <animate attributeName="ry" values="0;0;15;0;0" keyTimes="0;0.32;0.38;0.54;1" dur="4.6s" begin="1.5s" repeatCount="indefinite"/>
      <animate attributeName="opacity" values="0;0;0.85;0;0" keyTimes="0;0.32;0.38;0.54;1" dur="4.6s" begin="1.5s" repeatCount="indefinite"/>
    </ellipse>
    <ellipse cx="1204" cy="121" rx="8" ry="3" fill="none" stroke="#c94a4a" stroke-width="3.5">
      <animate attributeName="rx" values="8;8;150" keyTimes="0;0.34;0.92" dur="4.6s" begin="1.5s" repeatCount="indefinite"/>
      <animate attributeName="ry" values="3;3;20" keyTimes="0;0.34;0.92" dur="4.6s" begin="1.5s" repeatCount="indefinite"/>
      <animate attributeName="opacity" values="0;0;0.85;0" keyTimes="0;0.34;0.38;0.92" dur="4.6s" begin="1.5s" repeatCount="indefinite"/>
    </ellipse>
    <ellipse cx="1204" cy="121" rx="8" ry="3" fill="none" stroke="#b23a3a" stroke-width="2.6">
      <animate attributeName="rx" values="8;8;95" keyTimes="0;0.42;0.96" dur="4.6s" begin="1.5s" repeatCount="indefinite"/>
      <animate attributeName="ry" values="3;3;13" keyTimes="0;0.42;0.96" dur="4.6s" begin="1.5s" repeatCount="indefinite"/>
      <animate attributeName="opacity" values="0;0;0.7;0" keyTimes="0;0.42;0.46;0.96" dur="4.6s" begin="1.5s" repeatCount="indefinite"/>
    </ellipse>
  </g>

</svg>
