<svg xmlns="http://www.w3.org/2000/svg" viewBox="0 0 2000 150" width="2000" height="150" role="img" aria-label="blood pool">
  <defs>
    <linearGradient id="pool" x1="0" y1="0" x2="0" y2="1">
      <stop offset="0" stop-color="#c11c1c"/><stop offset="0.3" stop-color="#8f1212"/>
      <stop offset="0.7" stop-color="#560a0a"/><stop offset="1" stop-color="#2a0404"/>
    </linearGradient>
    <linearGradient id="sheen" x1="0" y1="0" x2="0" y2="1">
      <stop offset="0" stop-color="#ff9a9a" stop-opacity="0.5"/><stop offset="1" stop-color="#ff9a9a" stop-opacity="0"/>
    </linearGradient>
  </defs>
  
  <ellipse cx="63" cy="-26" rx="7" ry="15" fill="#9c1414" stroke="#5c0808" stroke-width="1">
    <animate attributeName="cy" values="-26;142;142" keyTimes="0;0.125;1" calcMode="spline" keySplines="0.25 0 0.85 1;0 0 1 1" dur="4.4s" begin="3.9s" repeatCount="indefinite"/>
    <animate attributeName="ry" values="12;26;26" keyTimes="0;0.125;1" dur="4.4s" begin="3.9s" repeatCount="indefinite"/>
  </ellipse>
  <ellipse cx="1204" cy="-26" rx="7" ry="15" fill="#9c1414" stroke="#5c0808" stroke-width="1">
    <animate attributeName="cy" values="-26;142;142" keyTimes="0;0.09;1" calcMode="spline" keySplines="0.25 0 0.85 1;0 0 1 1" dur="6.1s" begin="5.4s" repeatCount="indefinite"/>
    <animate attributeName="ry" values="12;26;26" keyTimes="0;0.09;1" dur="6.1s" begin="5.4s" repeatCount="indefinite"/>
  </ellipse>
  <path fill="url(#pool)" d="M0,72.0 L200,76.7 L400,77.8 L600,74.6 L800,69.3 L1000,66.1 L1200,67.4 L1400,72.1 L1600,76.8 L1800,77.8 L2000,74.5 L2000,150 L0,150 Z"><animate attributeName="d" values="M0,72.0 L200,76.7 L400,77.8 L600,74.6 L800,69.3 L1000,66.1 L1200,67.4 L1400,72.1 L1600,76.8 L1800,77.8 L2000,74.5 L2000,150 L0,150 Z;M0,72.0 L200,67.3 L400,66.2 L600,69.4 L800,74.7 L1000,77.9 L1200,76.6 L1400,71.9 L1600,67.2 L1800,66.2 L2000,69.5 L2000,150 L0,150 Z;M0,72.0 L200,76.7 L400,77.8 L600,74.6 L800,69.3 L1000,66.1 L1200,67.4 L1400,72.1 L1600,76.8 L1800,77.8 L2000,74.5 L2000,150 L0,150 Z" dur="8s" repeatCount="indefinite"/></path>
  <path fill="url(#sheen)" d="M0,72.0 L200,76.7 L400,77.8 L600,74.6 L800,69.3 L1000,66.1 L1200,67.4 L1400,72.1 L1600,76.8 L1800,77.8 L2000,74.5 L2000,106 L0,106 Z"><animate attributeName="d" values="M0,72.0 L200,76.7 L400,77.8 L600,74.6 L800,69.3 L1000,66.1 L1200,67.4 L1400,72.1 L1600,76.8 L1800,77.8 L2000,74.5 L2000,106 L0,106 Z;M0,72.0 L200,67.3 L400,66.2 L600,69.4 L800,74.7 L1000,77.9 L1200,76.6 L1400,71.9 L1600,67.2 L1800,66.2 L2000,69.5 L2000,106 L0,106 Z;M0,72.0 L200,76.7 L400,77.8 L600,74.6 L800,69.3 L1000,66.1 L1200,67.4 L1400,72.1 L1600,76.8 L1800,77.8 L2000,74.5 L2000,106 L0,106 Z" dur="8s" repeatCount="indefinite"/></path>
  <path fill="none" stroke="#ff8f8f" stroke-width="2.5" opacity="0.7" d="M0,72.0 L200,76.7 L400,77.8 L600,74.6 L800,69.3 L1000,66.1 L1200,67.4 L1400,72.1 L1600,76.8 L1800,77.8 L2000,74.5"><animate attributeName="d" values="M0,72.0 L200,76.7 L400,77.8 L600,74.6 L800,69.3 L1000,66.1 L1200,67.4 L1400,72.1 L1600,76.8 L1800,77.8 L2000,74.5;M0,72.0 L200,67.3 L400,66.2 L600,69.4 L800,74.7 L1000,77.9 L1200,76.6 L1400,71.9 L1600,67.2 L1800,66.2 L2000,69.5;M0,72.0 L200,76.7 L400,77.8 L600,74.6 L800,69.3 L1000,66.1 L1200,67.4 L1400,72.1 L1600,76.8 L1800,77.8 L2000,74.5" dur="8s" repeatCount="indefinite"/></path>
</svg>
